{
	"asset":{
		"generator":"Khronos glTF Blender I/O v4.1.62",
		"version":"2.0"
	},
	"scene":0,
	"scenes":[
		{
			"name":"Scene",
			"nodes":[
				41
			]
		}
	],
	"nodes":[
		{
			"name":"head0_end",
			"rotation":[
				-3.725291186640334e-09,
				3.259625014351286e-09,
				-2.421438871635928e-08,
				1
			],
			"translation":[
				2.1421371343421924e-09,
				3,
				-9.782521459555937e-08
			]
		},
		{
			"children":[
				0
			],
			"name":"head0",
			"rotation":[
				-0.042312655597925186,
				-0.0958002582192421,
				-0.0958002433180809,
				0.9898759126663208
			],
			"scale":[
				0.9999999403953552,
				1.000000238418579,
				1
			],
			"translation":[
				2.8312206268310547e-07,
				4.406412124633789,
				5.62518835067749e-07
			]
		},
		{
			"name":"leg_front_left_bot1_end",
			"rotation":[
				-9.313225746154785e-08,
				-1.8998980522155762e-07,
				1.043081283569336e-07,
				1
			],
			"translation":[
				1.1920928955078125e-06,
				14.253072738647461,
				-4.76837158203125e-07
			]
		},
		{
			"children":[
				2
			],
			"name":"leg_front_left_bot1",
			"rotation":[
				0.26483356952667236,
				-0.07914799451828003,
				-0.22253407537937164,
				0.9349210858345032
			],
			"scale":[
				0.9999999403953552,
				0.9999999403953552,
				0.9999999403953552
			],
			"translation":[
				-1.1920928955078125e-06,
				12.693603515625,
				-2.384185791015625e-07
			]
		},
		{
			"children":[
				3
			],
			"name":"leg_front_left_bot0",
			"rotation":[
				0.3367936611175537,
				-0.03689761832356453,
				-0.2216106802225113,
				0.914383590221405
			],
			"scale":[
				1,
				1,
				0.9999999403953552
			],
			"translation":[
				-5.960464477539062e-07,
				12.419843673706055,
				-7.152557373046875e-07
			]
		},
		{
			"children":[
				4
			],
			"name":"leg_front_left_top0",
			"rotation":[
				-0.3806600272655487,
				-0.17988382279872894,
				-0.2357960045337677,
				0.8758652806282043
			],
			"scale":[
				0.9999999403953552,
				0.9999999403953552,
				1
			],
			"translation":[
				4.742385387420654,
				2.4241840839385986,
				-0.3952409625053406
			]
		},
		{
			"name":"leg_front_right_bot1_end",
			"rotation":[
				4.0978193283081055e-08,
				0,
				3.725290298461914e-08,
				1
			],
			"translation":[
				-3.5762786865234375e-07,
				14.261138916015625,
				4.76837158203125e-07
			]
		},
		{
			"children":[
				6
			],
			"name":"leg_front_right_bot1",
			"rotation":[
				0.3369300365447998,
				-0.0835290253162384,
				0.09290909022092819,
				0.9332035779953003
			],
			"scale":[
				0.9999998807907104,
				1,
				1
			],
			"translation":[
				-7.152557373046875e-07,
				12.828679084777832,
				-1.1920928955078125e-07
			]
		},
		{
			"children":[
				7
			],
			"name":"leg_front_right_bot0",
			"rotation":[
				0.3661479949951172,
				-0.04597277194261551,
				0.142694354057312,
				0.9184010624885559
			],
			"translation":[
				2.384185791015625e-07,
				9.111807823181152,
				3.5762786865234375e-07
			]
		},
		{
			"children":[
				8
			],
			"name":"leg_front_right_top0",
			"rotation":[
				-0.3932245969772339,
				0.13798017799854279,
				0.05367525666952133,
				0.907444179058075
			],
			"scale":[
				1,
				1,
				0.9999999403953552
			],
			"translation":[
				-3.8618481159210205,
				5.89333963394165,
				-4.348371982574463
			]
		},
		{
			"children":[
				1,
				5,
				9
			],
			"name":"body_top1",
			"rotation":[
				0.03940747678279877,
				0.17171363532543182,
				0.16495051980018616,
				0.9704394936561584
			],
			"translation":[
				-2.384185791015625e-07,
				3.0737767219543457,
				-3.7439167499542236e-07
			]
		},
		{
			"name":"leg_mid_front_right_bot1_end",
			"rotation":[
				4.842877388000488e-08,
				-1.7695128917694092e-07,
				1.862645149230957e-08,
				1
			],
			"translation":[
				2.86102294921875e-06,
				12.131985664367676,
				-2.384185791015625e-07
			]
		},
		{
			"children":[
				11
			],
			"name":"leg_mid_front_right_bot1",
			"rotation":[
				0.14635823667049408,
				0.019240425899624825,
				0.335354208946228,
				0.9304550886154175
			],
			"scale":[
				1,
				0.9999998807907104,
				0.9999998211860657
			],
			"translation":[
				-1.1920928955078125e-07,
				11.456987380981445,
				2.384185791015625e-07
			]
		},
		{
			"children":[
				12
			],
			"name":"leg_mid_front_right_bot0",
			"rotation":[
				0.1843455582857132,
				-0.00615336187183857,
				0.3668486773967743,
				0.911811888217926
			],
			"scale":[
				1.0000001192092896,
				1,
				1
			],
			"translation":[
				2.3245811462402344e-06,
				12.1178617477417,
				-1.0728836059570312e-06
			]
		},
		{
			"children":[
				13
			],
			"name":"leg_mid_front_right_top0",
			"rotation":[
				-0.49306195974349976,
				0.3108689486980438,
				0.38216516375541687,
				0.7170775532722473
			],
			"translation":[
				-4.204085350036621,
				2.0213398933410645,
				1.2461904287338257
			]
		},
		{
			"name":"leg_mid_hind_left_bot1_end",
			"rotation":[
				1.564621925354004e-07,
				2.8870999813079834e-07,
				6.891787052154541e-08,
				1
			],
			"scale":[
				0.9999999403953552,
				1,
				1
			],
			"translation":[
				-2.3245811462402344e-06,
				12.200206756591797,
				-5.364418029785156e-07
			]
		},
		{
			"children":[
				15
			],
			"name":"leg_mid_hind_left_bot1",
			"rotation":[
				-0.20585644245147705,
				-0.06682956963777542,
				-0.2589181363582611,
				0.9413385391235352
			],
			"scale":[
				1.0000001192092896,
				1.0000001192092896,
				1.0000001192092896
			],
			"translation":[
				4.76837158203125e-07,
				9.637557983398438,
				-2.384185791015625e-07
			]
		},
		{
			"children":[
				16
			],
			"name":"leg_mid_hind_left_bot0",
			"rotation":[
				-0.21339669823646545,
				-0.03274941444396973,
				-0.3493305742740631,
				0.9117880463600159
			],
			"scale":[
				0.9999998807907104,
				1,
				1
			],
			"translation":[
				-5.960464477539063e-08,
				13.680191040039062,
				1.1920928955078125e-07
			]
		},
		{
			"children":[
				17
			],
			"name":"leg_mid_hind_left_top0",
			"rotation":[
				-0.7418624758720398,
				-0.2513439655303955,
				-0.14017607271671295,
				0.6056541204452515
			],
			"scale":[
				1,
				1.0000001192092896,
				1
			],
			"translation":[
				3.9776341915130615,
				0.7222495079040527,
				-0.7017281651496887
			]
		},
		{
			"name":"leg_mid_front_left_bot1_end",
			"rotation":[
				2.7939679014821195e-08,
				4.470348358154297e-08,
				1.30385160446167e-08,
				1
			],
			"scale":[
				1,
				1,
				0.9999999403953552
			],
			"translation":[
				7.152557373046875e-07,
				12.083976745605469,
				-8.046627044677734e-07
			]
		},
		{
			"children":[
				19
			],
			"name":"leg_mid_front_left_bot1",
			"rotation":[
				0.02708396501839161,
				-0.13146129250526428,
				-0.34072524309158325,
				0.9305324554443359
			],
			"scale":[
				0.9999999403953552,
				1,
				0.9999998807907104
			],
			"translation":[
				0,
				10.517253875732422,
				0
			]
		},
		{
			"children":[
				20
			],
			"name":"leg_mid_front_left_bot0",
			"rotation":[
				0.13748347759246826,
				-0.0445379838347435,
				-0.39564675092697144,
				0.9069610238075256
			],
			"scale":[
				1.0000001192092896,
				1,
				1
			],
			"translation":[
				-8.940696716308594e-07,
				12.762939453125,
				3.5762786865234375e-07
			]
		},
		{
			"children":[
				21
			],
			"name":"leg_mid_front_left_top0",
			"rotation":[
				-0.49042272567749023,
				-0.21553705632686615,
				-0.14177995920181274,
				0.8324228525161743
			],
			"scale":[
				1.0000001192092896,
				1.0000001192092896,
				1
			],
			"translation":[
				4.377371311187744,
				3.5618112087249756,
				-0.6559402942657471
			]
		},
		{
			"name":"leg_mid_hind_right_bot1_end",
			"rotation":[
				-2.2351740014414645e-08,
				4.09781861776537e-08,
				1.1175869119028903e-08,
				1
			],
			"scale":[
				1.0000001192092896,
				1,
				1.0000001192092896
			],
			"translation":[
				4.76837158203125e-07,
				12.107954025268555,
				-9.5367431640625e-07
			]
		},
		{
			"children":[
				23
			],
			"name":"leg_mid_hind_right_bot1",
			"rotation":[
				-0.21952936053276062,
				0.10122507810592651,
				0.2442629188299179,
				0.9390931725502014
			],
			"translation":[
				-2.384185791015625e-07,
				9.691361427307129,
				4.76837158203125e-07
			]
		},
		{
			"children":[
				24
			],
			"name":"leg_mid_hind_right_bot0",
			"rotation":[
				-0.22277897596359253,
				0.04583653807640076,
				0.34473350644111633,
				0.9107290506362915
			],
			"scale":[
				0.9999999403953552,
				1,
				0.9999998807907104
			],
			"translation":[
				-2.384185791015625e-07,
				12.686511993408203,
				2.384185791015625e-07
			]
		},
		{
			"children":[
				25
			],
			"name":"leg_mid_hind_right_top0",
			"rotation":[
				-0.7388761639595032,
				0.28874871134757996,
				0.39654871821403503,
				0.4619905948638916
			],
			"scale":[
				1.0000001192092896,
				1.0000001192092896,
				1.0000001192092896
			],
			"translation":[
				-3.9995932579040527,
				-0.7246885895729065,
				0.5533642172813416
			]
		},
		{
			"children":[
				10,
				14,
				18,
				22,
				26
			],
			"name":"body_top0",
			"rotation":[
				-0.0850534588098526,
				-0.1298188865184784,
				-0.11652647703886032,
				0.9809865355491638
			],
			"scale":[
				1,
				1.0000001192092896,
				0.9999999403953552
			],
			"translation":[
				1.9371509552001953e-07,
				5.429917335510254,
				7.450580596923828e-09
			]
		},
		{
			"name":"body_bot1_end",
			"rotation":[
				-5.0327570480209263e-14,
				7.450540628894942e-09,
				-7.450585037815927e-09,
				1
			],
			"translation":[
				1.923558556882199e-08,
				4.000000953674316,
				4.414977183841984e-08
			]
		},
		{
			"children":[
				28
			],
			"name":"body_bot1",
			"rotation":[
				-1.490091428024698e-08,
				-4.1867572520004614e-08,
				4.284095567186341e-08,
				1
			],
			"translation":[
				2.448379632369324e-08,
				1.5000001192092896,
				8.641727333724702e-08
			]
		},
		{
			"children":[
				29
			],
			"name":"body_bot0",
			"rotation":[
				0.9935763478279114,
				-0.050118252635002136,
				0.05011574178934097,
				0.08821965008974075
			],
			"scale":[
				0.9999983906745911,
				0.9999998807907104,
				0.9999960064888
			],
			"translation":[
				-0.02663363516330719,
				-0.1251508891582489,
				-0.2559455931186676
			]
		},
		{
			"name":"leg_hind_right_bot1_end",
			"rotation":[
				4.190952029858863e-09,
				4.097820038850841e-08,
				-5.401671998583879e-08,
				1
			],
			"scale":[
				0.9999999403953552,
				0.9999997615814209,
				0.9999999403953552
			],
			"translation":[
				-8.642673492431641e-07,
				13.55147933959961,
				1.430511474609375e-06
			]
		},
		{
			"children":[
				31
			],
			"name":"leg_hind_right_bot1",
			"rotation":[
				-0.35711655020713806,
				0.16558130085468292,
				-0.0220427755266428,
				0.9190019965171814
			],
			"scale":[
				1,
				0.9999999403953552,
				1.0000001192092896
			],
			"translation":[
				-1.7881393432617188e-07,
				13.18911075592041,
				1.1920928955078125e-07
			]
		},
		{
			"children":[
				32
			],
			"name":"leg_hind_right_bot0",
			"rotation":[
				-0.4088166654109955,
				0.05320606753230095,
				0.09373927861452103,
				0.9062290191650391
			],
			"scale":[
				0.9999999403953552,
				0.9999997615814209,
				0.9999999403953552
			],
			"translation":[
				-7.152557373046875e-07,
				10.40888786315918,
				-3.5762786865234375e-07
			]
		},
		{
			"children":[
				33
			],
			"name":"leg_hind_right_top0",
			"rotation":[
				-0.9354740381240845,
				0.18490618467330933,
				0.06806987524032593,
				0.2933676838874817
			],
			"scale":[
				1,
				1,
				0.9999999403953552
			],
			"translation":[
				-3.7830801010131836,
				0.9730789065361023,
				-1.4698779582977295
			]
		},
		{
			"name":"leg_hind_left_bot1_end",
			"rotation":[
				-1.508742428768528e-07,
				-1.1920928244535389e-07,
				3.352760913344355e-08,
				1
			],
			"scale":[
				1,
				1.0000001192092896,
				1.0000001192092896
			],
			"translation":[
				-4.172325134277344e-07,
				14.294411659240723,
				1.7881393432617188e-07
			]
		},
		{
			"children":[
				35
			],
			"name":"leg_hind_left_bot1",
			"rotation":[
				-0.3392999470233917,
				-0.030417362228035927,
				-0.09460091590881348,
				0.9354149103164673
			],
			"scale":[
				0.9999999403953552,
				1,
				0.9999999403953552
			],
			"translation":[
				2.384185791015625e-07,
				12.914433479309082,
				-2.384185791015625e-07
			]
		},
		{
			"children":[
				36
			],
			"name":"leg_hind_left_bot0",
			"rotation":[
				-0.3731791079044342,
				0.007780104409903288,
				-0.14686450362205505,
				0.9160282015800476
			],
			"scale":[
				1,
				1.0000001192092896,
				1
			],
			"translation":[
				-2.384185791015625e-07,
				8.242271423339844,
				-2.980232238769531e-07
			]
		},
		{
			"children":[
				37
			],
			"name":"leg_hind_left_top0",
			"rotation":[
				-0.9370278716087341,
				-0.06738456338644028,
				-0.14321668446063995,
				0.31133127212524414
			],
			"scale":[
				1,
				0.9999999403953552,
				0.9999995827674866
			],
			"translation":[
				4.210319995880127,
				-0.9833227396011353,
				-3.2278804779052734
			]
		},
		{
			"children":[
				27,
				30,
				34,
				38
			],
			"name":"body",
			"rotation":[
				0.0882195234298706,
				0.0501180961728096,
				0.0501180998980999,
				0.9935762286186218
			],
			"scale":[
				0.9999999403953552,
				1,
				1
			],
			"translation":[
				0.6927621960639954,
				-6.693119525909424,
				0.9708274006843567
			]
		},
		{
			"mesh":0,
			"name":"Giant_Spider",
			"skin":0
		},
		{
			"children":[
				40,
				39
			],
			"name":"rig",
			"rotation":[
				0.7071068286895752,
				0,
				0,
				0.7071068286895752
			]
		}
	],
	"materials":[
		{
			"doubleSided":true,
			"name":"mat23.001",
			"pbrMetallicRoughness":{
				"baseColorFactor":[
					0.009999999776482582,
					0.009999999776482582,
					0.009999999776482582,
					1
				],
				"metallicFactor":0
			}
		},
		{
			"doubleSided":true,
			"name":"mat18.001",
			"pbrMetallicRoughness":{
				"baseColorFactor":[
					1,
					0.6100000143051147,
					0.25,
					1
				],
				"metallicFactor":0
			}
		},
		{
			"doubleSided":true,
			"name":"mat20.001",
			"pbrMetallicRoughness":{
				"baseColorFactor":[
					0.1899999976158142,
					0.09000000357627869,
					0.05999999865889549,
					1
				],
				"metallicFactor":0
			}
		},
		{
			"doubleSided":true,
			"name":"mat17.001",
			"pbrMetallicRoughness":{
				"baseColorFactor":[
					0.05999999865889549,
					0.10000000149011612,
					0.12999999523162842,
					1
				],
				"metallicFactor":0
			}
		},
		{
			"doubleSided":true,
			"name":"mat8.001",
			"pbrMetallicRoughness":{
				"baseColorFactor":[
					0.9100000262260437,
					0.05000000074505806,
					0.029999999329447746,
					1
				],
				"metallicFactor":0
			}
		}
	],
	"meshes":[
		{
			"name":"Giant_Spider",
			"primitives":[
				{
					"attributes":{
						"POSITION":0,
						"NORMAL":1,
						"TEXCOORD_0":2,
						"JOINTS_0":3,
						"WEIGHTS_0":4
					},
					"indices":5,
					"material":0
				},
				{
					"attributes":{
						"POSITION":6,
						"NORMAL":7,
						"TEXCOORD_0":8,
						"JOINTS_0":9,
						"WEIGHTS_0":10
					},
					"indices":11,
					"material":1
				},
				{
					"attributes":{
						"POSITION":12,
						"NORMAL":13,
						"TEXCOORD_0":14,
						"JOINTS_0":15,
						"WEIGHTS_0":16
					},
					"indices":17,
					"material":2
				},
				{
					"attributes":{
						"POSITION":18,
						"NORMAL":19,
						"TEXCOORD_0":20,
						"JOINTS_0":21,
						"WEIGHTS_0":22
					},
					"indices":23,
					"material":3
				},
				{
					"attributes":{
						"POSITION":24,
						"NORMAL":25,
						"TEXCOORD_0":26,
						"JOINTS_0":27,
						"WEIGHTS_0":28
					},
					"indices":29,
					"material":4
				}
			]
		}
	],
	"skins":[
		{
			"inverseBindMatrices":30,
			"joints":[
				39,
				27,
				10,
				1,
				0,
				5,
				4,
				3,
				2,
				9,
				8,
				7,
				6,
				14,
				13,
				12,
				11,
				18,
				17,
				16,
				15,
				22,
				21,
				20,
				19,
				26,
				25,
				24,
				23,
				30,
				29,
				28,
				34,
				33,
				32,
				31,
				38,
				37,
				36,
				35
			],
			"name":"rig"
		}
	],
	"accessors":[
		{
			"bufferView":0,
			"componentType":5126,
			"count":7061,
			"max":[
				29.797212600708008,
				9.442281723022461,
				31.66901397705078
			],
			"min":[
				-28.253673553466797,
				-6.93385648727417,
				-32.90113830566406
			],
			"type":"VEC3"
		},
		{
			"bufferView":1,
			"componentType":5126,
			"count":7061,
			"type":"VEC3"
		},
		{
			"bufferView":2,
			"componentType":5126,
			"count":7061,
			"type":"VEC2"
		},
		{
			"bufferView":3,
			"componentType":5121,
			"count":7061,
			"type":"VEC4"
		},
		{
			"bufferView":4,
			"componentType":5126,
			"count":7061,
			"type":"VEC4"
		},
		{
			"bufferView":5,
			"componentType":5123,
			"count":7704,
			"type":"SCALAR"
		},
		{
			"bufferView":6,
			"componentType":5126,
			"count":369,
			"max":[
				3.905656576156616,
				2.3898298740386963,
				3.64847469329834
			],
			"min":[
				-3.085857391357422,
				-2.906038999557495,
				-18.003145217895508
			],
			"type":"VEC3"
		},
		{
			"bufferView":7,
			"componentType":5126,
			"count":369,
			"type":"VEC3"
		},
		{
			"bufferView":8,
			"componentType":5126,
			"count":369,
			"type":"VEC2"
		},
		{
			"bufferView":9,
			"componentType":5121,
			"count":369,
			"type":"VEC4"
		},
		{
			"bufferView":10,
			"componentType":5126,
			"count":369,
			"type":"VEC4"
		},
		{
			"bufferView":11,
			"componentType":5123,
			"count":369,
			"type":"SCALAR"
		},
		{
			"bufferView":12,
			"componentType":5126,
			"count":13293,
			"max":[
				31.51253890991211,
				9.592345237731934,
				33.50001525878906
			],
			"min":[
				-29.68343734741211,
				-8.454758644104004,
				-34.92448425292969
			],
			"type":"VEC3"
		},
		{
			"bufferView":13,
			"componentType":5126,
			"count":13293,
			"type":"VEC3"
		},
		{
			"bufferView":14,
			"componentType":5126,
			"count":13293,
			"type":"VEC2"
		},
		{
			"bufferView":15,
			"componentType":5121,
			"count":13293,
			"type":"VEC4"
		},
		{
			"bufferView":16,
			"componentType":5126,
			"count":13293,
			"type":"VEC4"
		},
		{
			"bufferView":17,
			"componentType":5123,
			"count":14868,
			"type":"SCALAR"
		},
		{
			"bufferView":18,
			"componentType":5126,
			"count":18,
			"max":[
				0.8632174730300903,
				-2.4794516563415527,
				-17.724016189575195
			],
			"min":[
				0.49958789348602295,
				-2.8018596172332764,
				-18.37639617919922
			],
			"type":"VEC3"
		},
		{
			"bufferView":19,
			"componentType":5126,
			"count":18,
			"type":"VEC3"
		},
		{
			"bufferView":20,
			"componentType":5126,
			"count":18,
			"type":"VEC2"
		},
		{
			"bufferView":21,
			"componentType":5121,
			"count":18,
			"type":"VEC4"
		},
		{
			"bufferView":22,
			"componentType":5126,
			"count":18,
			"type":"VEC4"
		},
		{
			"bufferView":23,
			"componentType":5123,
			"count":18,
			"type":"SCALAR"
		},
		{
			"bufferView":24,
			"componentType":5126,
			"count":15,
			"max":[
				0.949378252029419,
				-0.21715670824050903,
				5.060726165771484
			],
			"min":[
				-0.19762852787971497,
				-1.0622283220291138,
				4.733343124389648
			],
			"type":"VEC3"
		},
		{
			"bufferView":25,
			"componentType":5126,
			"count":15,
			"type":"VEC3"
		},
		{
			"bufferView":26,
			"componentType":5126,
			"count":15,
			"type":"VEC2"
		},
		{
			"bufferView":27,
			"componentType":5121,
			"count":15,
			"type":"VEC4"
		},
		{
			"bufferView":28,
			"componentType":5126,
			"count":15,
			"type":"VEC4"
		},
		{
			"bufferView":29,
			"componentType":5123,
			"count":15,
			"type":"SCALAR"
		},
		{
			"bufferView":30,
			"componentType":5126,
			"count":40,
			"type":"MAT4"
		}
	],
	"bufferViews":[
		{
			"buffer":0,
			"byteLength":84732,
			"byteOffset":0,
			"target":34962
		},
		{
			"buffer":0,
			"byteLength":84732,
			"byteOffset":84732,
			"target":34962
		},
		{
			"buffer":0,
			"byteLength":56488,
			"byteOffset":169464,
			"target":34962
		},
		{
			"buffer":0,
			"byteLength":28244,
			"byteOffset":225952,
			"target":34962
		},
		{
			"buffer":0,
			"byteLength":112976,
			"byteOffset":254196,
			"target":34962
		},
		{
			"buffer":0,
			"byteLength":15408,
			"byteOffset":367172,
			"target":34963
		},
		{
			"buffer":0,
			"byteLength":4428,
			"byteOffset":382580,
			"target":34962
		},
		{
			"buffer":0,
			"byteLength":4428,
			"byteOffset":387008,
			"target":34962
		},
		{
			"buffer":0,
			"byteLength":2952,
			"byteOffset":391436,
			"target":34962
		},
		{
			"buffer":0,
			"byteLength":1476,
			"byteOffset":394388,
			"target":34962
		},
		{
			"buffer":0,
			"byteLength":5904,
			"byteOffset":395864,
			"target":34962
		},
		{
			"buffer":0,
			"byteLength":738,
			"byteOffset":401768,
			"target":34963
		},
		{
			"buffer":0,
			"byteLength":159516,
			"byteOffset":402508,
			"target":34962
		},
		{
			"buffer":0,
			"byteLength":159516,
			"byteOffset":562024,
			"target":34962
		},
		{
			"buffer":0,
			"byteLength":106344,
			"byteOffset":721540,
			"target":34962
		},
		{
			"buffer":0,
			"byteLength":53172,
			"byteOffset":827884,
			"target":34962
		},
		{
			"buffer":0,
			"byteLength":212688,
			"byteOffset":881056,
			"target":34962
		},
		{
			"buffer":0,
			"byteLength":29736,
			"byteOffset":1093744,
			"target":34963
		},
		{
			"buffer":0,
			"byteLength":216,
			"byteOffset":1123480,
			"target":34962
		},
		{
			"buffer":0,
			"byteLength":216,
			"byteOffset":1123696,
			"target":34962
		},
		{
			"buffer":0,
			"byteLength":144,
			"byteOffset":1123912,
			"target":34962
		},
		{
			"buffer":0,
			"byteLength":72,
			"byteOffset":1124056,
			"target":34962
		},
		{
			"buffer":0,
			"byteLength":288,
			"byteOffset":1124128,
			"target":34962
		},
		{
			"buffer":0,
			"byteLength":36,
			"byteOffset":1124416,
			"target":34963
		},
		{
			"buffer":0,
			"byteLength":180,
			"byteOffset":1124452,
			"target":34962
		},
		{
			"buffer":0,
			"byteLength":180,
			"byteOffset":1124632,
			"target":34962
		},
		{
			"buffer":0,
			"byteLength":120,
			"byteOffset":1124812,
			"target":34962
		},
		{
			"buffer":0,
			"byteLength":60,
			"byteOffset":1124932,
			"target":34962
		},
		{
			"buffer":0,
			"byteLength":240,
			"byteOffset":1124992,
			"target":34962
		},
		{
			"buffer":0,
			"byteLength":30,
			"byteOffset":1125232,
			"target":34963
		},
		{
			"buffer":0,
			"byteLength":2560,
			"byteOffset":1125264
		}
	],
	"buffers":[
		{
			"byteLength":1127824,
			"uri":"Giant_Spider.bin"
		}
	]
}
